<svg fill="none" xmlns="http://www.w3.org/2000/svg" viewBox="0 0 24 24"><path d="m2.75 2.98 2.08.36.963 11.472a1.8 1.8 0 0 0 1.8 1.653h10.909a1.8 1.8 0 0 0 1.785-1.546l.949-6.558a1.341 1.341 0 0 0-1.135-1.519c-.064-.009-14.937-.014-14.937-.014M14.125 10.524h2.773" stroke="#000" stroke-width="1.5" stroke-linecap="round" stroke-linejoin="round"/><path fill-rule="evenodd" clip-rule="evenodd" d="M7.154 19.932a.544.544 0 1 1 0 1.088.544.544 0 0 1 0-1.088ZM18.435 19.932a.545.545 0 1 1 0 1.09.545.545 0 0 1 0-1.09Z" fill="#000" stroke="#000" stroke-width="1.5" stroke-linecap="round" stroke-linejoin="round"/></svg>