<svg fill="none" xmlns="http://www.w3.org/2000/svg" viewBox="0 0 14 14"><path d="M1.912 13.16c.047.486.474.84.995.84h8.185c.522 0 .948-.368.996-.84l.916-8.96H.995l.917 8.96ZM9.007 7c0-.25.22-.472.505-.472.269 0 .506.207.506.472v4.2c0 .25-.221.472-.506.472-.268 0-.505-.207-.505-.472V7ZM6.494 7c0-.25.221-.472.506-.472.268 0 .505.207.505.472v4.2c0 .25-.22.472-.505.472-.269 0-.506-.207-.506-.472V7ZM3.998 7c0-.25.22-.472.505-.472.269 0 .506.207.506.472v4.2c0 .25-.221.472-.506.472-.268 0-.505-.207-.505-.472V7ZM13.005 1.4H9.006V.928C9.007.413 8.564 0 8.01 0H6.005c-.554 0-.996.413-.996.928V1.4H.995C.442 1.4 0 1.813 0 2.328c0 .516.442.929.995.929h12.01c.553 0 .995-.413.995-.929 0-.515-.442-.928-.995-.928Z" fill="#000"/></svg>